<?xml version="1.0" standalone="no"?>
<!DOCTYPE svg PUBLIC "-//W3C//DTD SVG 20010904//EN"
 "http://www.w3.org/TR/2001/REC-SVG-20010904/DTD/svg10.dtd">
<svg version="1.0" xmlns="http://www.w3.org/2000/svg"
 width="616.000000pt" height="616.000000pt" viewBox="0 0 616.000000 616.000000"
 preserveAspectRatio="xMidYMid meet">
<metadata>
Created by potrace 1.14, written by Peter Selinger 2001-2017
</metadata>
<g transform="translate(0.000000,616.000000) scale(0.100000,-0.100000)"
fill="#000000" stroke="none">
<path d="M2865 5881 l20 -24 -22 12 c-16 8 -23 8 -23 1 0 -6 -5 -8 -10 -5 -6
4 -17 2 -25 -5 -9 -7 -15 -8 -20 0 -3 5 -11 10 -16 10 -6 0 -8 -4 -5 -8 6 -11
-45 -9 -63 3 -10 6 -12 4 -6 -5 6 -9 -2 -11 -33 -7 -29 3 -39 1 -36 -8 6 -15
-26 -16 -45 -1 -12 9 -13 8 -8 -6 4 -12 2 -15 -9 -11 -8 3 -22 -1 -31 -8 -9
-8 -14 -9 -10 -3 4 7 0 15 -9 18 -8 3 -13 2 -10 -3 3 -5 -1 -12 -10 -15 -8 -3
-12 -2 -9 4 3 6 -1 7 -9 4 -9 -3 -13 -10 -10 -15 3 -5 -2 -6 -10 -3 -9 3 -13
10 -10 15 3 5 0 9 -5 9 -14 0 -14 -13 1 -28 16 -16 -4 -16 -21 1 -11 10 -13 9
-8 -6 5 -14 3 -16 -12 -8 -10 6 -21 8 -24 4 -4 -3 -17 -7 -29 -8 -13 -1 -29
-3 -35 -4 -7 0 -13 -6 -13 -12 0 -5 6 -7 13 -3 6 4 8 3 4 -1 -11 -13 -41 -15
-47 -4 -4 5 -22 2 -43 -9 -21 -10 -36 -20 -35 -23 2 -2 -3 2 -9 10 -11 13 -13
13 -13 -1 0 -11 -6 -15 -20 -11 -13 4 -22 -1 -27 -13 -6 -16 -7 -16 -14 2 -7
17 -8 17 -8 2 -1 -11 -9 -18 -22 -18 -11 0 -18 -4 -14 -9 3 -5 0 -13 -6 -17
-7 -4 -9 -3 -6 3 4 6 0 14 -9 17 -8 3 -12 2 -9 -4 3 -6 -1 -10 -9 -10 -9 0
-16 -8 -16 -17 0 -15 -2 -16 -10 -3 -8 13 -14 8 -12 -11 1 -3 -5 -6 -13 -6 -8
0 -12 4 -9 9 3 4 -2 5 -10 2 -9 -3 -13 -10 -10 -15 3 -5 0 -9 -5 -9 -6 0 -11
5 -11 12 0 9 -3 9 -12 0 -10 -10 -10 -15 2 -23 13 -9 13 -10 -2 -6 -9 3 -24 0
-35 -8 -15 -12 -21 -11 -38 3 -17 15 -18 15 -7 1 16 -21 -7 -46 -26 -27 -6 6
-15 8 -19 4 -4 -4 -1 -11 7 -16 8 -6 10 -10 5 -10 -6 0 -17 6 -24 13 -10 10
-12 9 -9 -3 2 -9 -4 -14 -14 -14 -16 2 -23 -14 -19 -39 1 -5 -3 -6 -8 -2 -6 3
-7 13 -4 22 4 11 3 14 -5 9 -7 -4 -12 -14 -12 -22 0 -8 -5 -14 -11 -14 -5 0
-7 6 -3 13 5 8 3 8 -9 -2 -9 -7 -14 -18 -10 -24 3 -6 1 -7 -5 -3 -7 4 -12 2
-12 -4 0 -6 -5 -8 -10 -5 -6 4 -8 12 -4 18 3 7 -6 -1 -20 -16 -16 -17 -31 -25
-39 -21 -7 5 -6 0 3 -11 15 -19 15 -19 -15 -1 -30 19 -30 19 -12 -1 20 -23 11
-39 -11 -20 -13 10 -15 9 -9 -5 4 -12 1 -18 -8 -19 -32 -3 -36 -5 -45 -19 -5
-8 -7 -17 -4 -21 2 -4 -1 -11 -7 -15 -7 -4 -9 -3 -6 3 4 6 -4 13 -17 15 -17 4
-23 1 -19 -8 3 -8 -2 -17 -11 -20 -9 -3 -13 -11 -9 -18 4 -7 1 -7 -8 1 -13 11
-19 9 -36 -10 -32 -35 -37 -48 -16 -41 15 5 15 4 3 -4 -17 -13 -44 4 -33 21 3
6 1 7 -5 3 -9 -5 -9 -13 -2 -27 11 -20 11 -21 -17 -23 -10 -1 -25 -6 -33 -11
-8 -5 -18 -10 -22 -10 -3 0 -9 -3 -13 -7 -12 -12 23 -2 39 11 9 7 16 9 16 3 0
-5 -7 -13 -16 -16 -8 -3 -12 -10 -9 -16 3 -6 -1 -7 -9 -4 -9 4 -16 1 -16 -6 0
-10 -3 -10 -14 -1 -11 9 -14 8 -12 -6 0 -12 -5 -17 -17 -17 -17 2 -17 1 -1
-25 12 -18 13 -22 3 -14 -15 12 -39 4 -42 -13 -1 -5 -9 -8 -19 -8 -10 1 -14
-4 -11 -12 3 -8 10 -11 16 -7 6 3 7 1 3 -5 -5 -8 -13 -9 -25 -2 -14 7 -23 4
-40 -14 -11 -12 -21 -28 -21 -35 0 -7 -4 -10 -9 -6 -5 3 -13 0 -17 -6 -4 -8
-3 -9 4 -5 7 4 12 2 12 -3 0 -6 -7 -11 -15 -11 -10 0 -12 -6 -8 -17 6 -16 5
-17 -12 -3 -17 14 -18 14 -5 -10 l13 -25 -22 20 -22 19 10 -26 c9 -24 8 -26
-15 -23 -28 3 -29 1 -8 -20 15 -15 14 -15 -12 -10 -16 4 -24 3 -19 -2 6 -4 11
-14 13 -22 3 -12 1 -12 -13 -1 -11 9 -19 10 -26 3 -8 -8 -7 -13 2 -18 8 -6 10
-4 4 5 -5 9 -4 11 4 6 14 -9 5 -26 -15 -26 -8 0 -14 -9 -14 -20 0 -11 -5 -20
-11 -20 -5 0 -7 4 -4 10 4 6 -1 7 -11 3 -11 -4 -13 -8 -6 -11 7 -2 12 -8 12
-13 0 -6 -5 -7 -12 -3 -7 5 -9 0 -6 -14 4 -16 2 -19 -10 -15 -11 5 -14 2 -9
-10 6 -15 4 -16 -16 -6 -19 11 -20 10 -9 -3 10 -13 9 -16 -8 -21 -14 -4 -18
-10 -13 -23 5 -13 3 -15 -8 -9 -11 7 -11 5 1 -10 12 -15 12 -17 1 -10 -11 6
-13 4 -8 -8 3 -9 3 -16 -1 -16 -21 4 -42 -2 -42 -12 0 -5 4 -8 8 -5 5 3 9 -1
9 -9 0 -10 -8 -13 -23 -11 -22 4 -28 -14 -9 -31 4 -4 5 -2 1 5 -10 18 -1 15
15 -5 8 -10 9 -14 2 -10 -6 4 -15 3 -18 -3 -5 -8 -12 -7 -23 2 -10 8 -13 9 -9
1 4 -6 3 -15 -3 -18 -8 -5 -8 -11 -1 -19 14 -17 2 -29 -15 -15 -10 8 -12 5 -8
-15 3 -20 1 -24 -11 -20 -11 5 -15 -1 -16 -22 -1 -16 -1 -33 0 -37 1 -5 -4 -5
-10 -1 -9 5 -10 2 -6 -9 3 -9 1 -19 -5 -23 -6 -4 -8 -3 -4 4 3 6 1 14 -6 18
-7 4 -10 4 -6 -1 4 -4 1 -20 -8 -36 -8 -16 -11 -29 -7 -29 4 0 -2 -7 -13 -16
-10 -8 -14 -13 -7 -10 6 4 15 1 19 -5 4 -7 3 -9 -4 -5 -6 3 -14 1 -18 -5 -3
-6 0 -15 7 -20 9 -6 10 -9 2 -9 -7 0 -16 8 -22 17 -7 13 -8 6 -5 -26 4 -41 3
-43 -11 -25 -13 17 -14 17 -9 1 4 -11 0 -24 -12 -33 -11 -9 -14 -13 -7 -10 7
4 11 -1 10 -13 -1 -15 -4 -17 -14 -9 -11 8 -12 7 -7 -7 5 -13 4 -16 -4 -11 -7
4 -12 2 -12 -3 0 -6 5 -11 10 -11 6 0 10 -5 10 -11 0 -5 -4 -8 -9 -5 -11 7
-23 -22 -14 -36 3 -7 1 -8 -5 -4 -12 7 -16 -4 -13 -36 1 -10 -3 -18 -9 -18 -7
0 -10 -7 -6 -15 3 -9 0 -15 -9 -15 -8 0 -15 -5 -15 -11 0 -5 4 -8 8 -5 5 3 9
-1 9 -9 0 -8 -5 -11 -10 -8 -6 4 -8 0 -4 -10 3 -9 0 -18 -9 -21 -11 -4 -12
-10 -5 -25 9 -17 8 -18 -12 -14 -22 5 -22 5 -2 -11 11 -10 15 -15 8 -12 -6 4
-14 2 -18 -4 -3 -5 -1 -10 4 -10 6 0 11 -5 11 -11 0 -5 -4 -8 -9 -4 -5 3 -13
0 -17 -6 -4 -7 -3 -9 4 -5 6 3 13 2 17 -4 3 -6 -4 -10 -17 -11 -13 0 -17 -3
-10 -6 6 -2 12 -12 12 -21 0 -15 -2 -15 -10 -2 -8 13 -10 13 -10 -2 0 -9 -3
-23 -6 -32 -4 -11 0 -16 12 -17 16 0 15 -2 -4 -10 -17 -6 -22 -14 -17 -28 4
-13 0 -23 -12 -30 -14 -8 -15 -11 -3 -12 8 -1 19 -1 24 0 5 1 4 -5 -4 -13 -15
-19 -24 -21 -14 -3 4 6 3 8 -1 4 -14 -12 -15 -38 -2 -30 7 4 6 -1 -2 -10 -10
-13 -11 -20 -2 -31 9 -11 9 -16 0 -22 -8 -5 -9 -3 -4 6 5 8 4 11 -3 6 -6 -3
-9 -20 -7 -37 3 -22 0 -29 -9 -26 -13 5 -16 -27 -3 -39 3 -4 2 -15 -4 -25 -7
-15 -6 -19 6 -19 8 0 15 -4 15 -9 0 -5 -10 -7 -22 -5 -13 2 -17 1 -10 -2 10
-5 10 -9 0 -22 -11 -13 -11 -14 2 -7 13 7 13 6 2 -7 -10 -13 -10 -17 0 -21 8
-4 7 -6 -4 -6 -10 -1 -18 -5 -18 -11 0 -5 6 -7 13 -4 8 3 13 -3 13 -15 0 -14
-4 -17 -12 -10 -8 7 -15 6 -20 -2 -4 -8 -3 -9 4 -5 8 5 12 0 12 -13 0 -10 3
-21 8 -24 4 -2 2 -2 -5 -1 -6 2 -14 -4 -17 -12 -8 -21 -8 -24 5 -24 5 0 7 4 4
10 -3 6 1 7 10 3 11 -3 13 -8 6 -12 -6 -4 -9 -17 -6 -29 2 -13 0 -20 -6 -17
-5 4 -9 -1 -9 -10 0 -10 -5 -13 -12 -9 -7 4 -8 3 -4 -4 4 -7 15 -12 24 -12 15
-1 15 -2 -1 -11 -15 -9 -16 -13 -5 -27 10 -12 10 -14 1 -8 -7 4 -13 2 -13 -3
0 -6 6 -11 13 -11 8 0 7 -4 -3 -10 -12 -8 -12 -10 5 -10 19 -1 19 -1 2 -11
-15 -9 -16 -13 -5 -27 10 -12 10 -14 1 -8 -7 4 -13 3 -13 -3 0 -5 5 -11 12
-13 7 -3 8 -9 3 -19 -12 -18 -14 -60 -3 -53 4 3 6 -5 4 -18 -2 -13 2 -33 10
-45 10 -15 11 -24 3 -29 -8 -4 -7 -9 2 -16 11 -8 11 -9 -1 -5 -8 2 -14 14 -14
26 1 12 -1 19 -4 16 -8 -8 -10 -54 -3 -53 25 3 34 -3 23 -14 -16 -16 -15 -31
1 -23 6 4 3 -1 -7 -9 -19 -16 -19 -16 5 -17 13 0 18 -3 12 -6 -17 -6 -17 -33
0 -33 8 0 7 -4 -3 -10 -8 -5 -10 -10 -4 -10 6 0 9 -13 6 -32 -5 -31 -4 -32 14
-18 18 14 18 14 5 -3 -8 -9 -11 -20 -7 -24 3 -3 -2 -15 -11 -26 -17 -19 -17
-20 4 -9 19 10 20 9 16 -9 -4 -12 0 -25 8 -30 10 -6 10 -9 2 -9 -18 0 -11 -35
13 -61 10 -12 13 -19 7 -15 -8 4 -13 1 -13 -9 0 -10 -5 -13 -12 -9 -7 4 -8 3
-4 -4 4 -6 13 -9 20 -6 18 7 30 -12 15 -22 -8 -5 -9 -3 -4 7 7 12 5 12 -6 1
-9 -8 -10 -15 -4 -20 10 -7 14 -19 20 -52 1 -8 -3 -19 -9 -23 -7 -6 -4 -7 6
-3 10 3 19 1 19 -4 1 -6 2 -16 3 -22 1 -7 9 -12 19 -12 9 1 14 -3 11 -8 -3 -5
-12 -7 -20 -4 -8 3 -14 1 -14 -4 0 -6 4 -10 9 -10 6 0 9 -9 8 -20 -1 -11 -5
-20 -10 -20 -4 0 -5 -5 -1 -11 4 -8 9 -7 15 2 4 7 6 16 4 19 -2 4 3 7 11 7 9
0 11 -4 5 -10 -6 -6 -6 -19 -1 -32 6 -15 4 -27 -3 -34 -9 -9 -7 -11 8 -5 19 7
19 7 2 -13 -19 -21 -17 -23 38 -24 15 0 17 -2 6 -9 -8 -4 -21 -6 -30 -3 -12 4
-13 3 -3 -4 7 -6 12 -14 11 -19 -3 -12 19 -64 26 -64 4 0 3 6 -1 13 -5 8 -2 8
9 -2 18 -15 23 -26 7 -16 -5 3 -10 1 -10 -4 0 -6 4 -11 9 -11 5 0 14 -14 20
-30 7 -22 7 -29 0 -24 -7 4 -7 -1 1 -15 6 -13 16 -19 23 -15 7 4 3 -3 -8 -17
-15 -18 -16 -20 -3 -10 16 12 18 11 19 -10 1 -13 1 -28 0 -32 -1 -5 3 -6 8 -2
6 3 8 13 5 23 -4 12 -3 13 3 5 5 -7 8 -26 7 -43 -1 -16 2 -30 8 -30 5 0 6 -6
2 -13 -5 -7 -1 -7 10 2 16 13 17 12 11 -15 -6 -28 -6 -28 10 -9 15 19 16 19
13 -5 -2 -14 2 -24 8 -23 6 1 11 -5 11 -13 0 -12 -3 -12 -18 2 -13 12 -19 12
-25 3 -4 -7 -3 -10 3 -6 9 6 43 -26 43 -40 0 -3 8 -12 17 -19 17 -13 17 -14
-2 -8 -19 7 -20 6 -1 -8 12 -9 16 -20 11 -28 -5 -9 -4 -11 3 -6 7 4 12 2 12
-4 0 -6 4 -9 9 -5 6 3 8 -7 5 -22 -3 -18 -1 -23 4 -15 7 11 11 10 16 -3 3 -9
12 -15 19 -12 8 3 13 -3 13 -14 0 -12 -4 -15 -10 -9 -13 13 -26 13 -26 0 0 -5
3 -9 8 -8 13 2 42 -14 42 -24 0 -5 -5 -6 -11 -3 -6 4 -5 -2 2 -13 7 -12 15
-20 18 -20 17 1 31 -3 30 -9 -3 -21 2 -33 15 -33 8 0 17 -7 20 -16 9 -24 7
-31 -5 -11 -5 9 -14 17 -19 17 -6 0 -2 -9 7 -19 9 -11 22 -17 29 -14 8 3 15
-1 16 -8 0 -8 2 -18 2 -24 2 -16 25 -51 26 -40 0 6 -4 16 -10 23 -6 8 -5 8 4
0 8 -7 16 -20 18 -28 2 -8 15 -23 30 -32 17 -11 25 -23 22 -32 -3 -8 0 -17 7
-22 8 -4 10 -3 5 4 -4 7 -2 12 3 12 6 0 11 -7 11 -15 0 -13 17 -19 41 -17 3 1
4 -11 1 -25 -3 -14 -1 -24 4 -21 5 3 15 0 22 -8 7 -8 9 -14 5 -14 -4 0 0 -7
10 -15 11 -7 26 -11 35 -8 14 4 15 3 2 -5 -8 -6 -18 -8 -24 -5 -5 3 -6 1 -2
-5 4 -7 16 -12 26 -12 10 0 21 -4 25 -10 3 -5 13 -7 23 -4 13 5 14 4 4 -4 -8
-5 -14 -11 -15 -14 -3 -9 25 -38 37 -37 7 0 6 2 -1 6 -7 2 -13 9 -13 15 0 6 6
6 15 -2 8 -7 12 -16 9 -21 -3 -5 0 -9 6 -9 6 0 8 -4 5 -10 -3 -5 0 -7 8 -4 8
3 18 0 23 -7 4 -7 3 -10 -4 -5 -6 3 -14 2 -17 -4 -4 -6 -3 -10 2 -9 4 1 15 1
23 0 13 -1 13 -2 0 -12 -12 -8 -10 -9 8 -4 17 5 22 2 22 -13 0 -15 6 -19 25
-17 14 2 23 -1 19 -6 -3 -5 -10 -7 -15 -4 -15 10 -10 -2 8 -16 11 -10 14 -10
9 -2 -4 7 -3 13 1 13 5 0 14 -10 19 -22 6 -13 9 -17 7 -11 -1 7 2 13 7 13 6 0
10 -5 10 -11 0 -5 6 -7 13 -3 8 5 8 2 -2 -9 -12 -15 -11 -17 10 -17 13 0 31
-5 39 -11 13 -10 13 -10 -1 -6 -9 3 -16 -1 -16 -9 0 -7 4 -11 8 -8 4 2 15 -3
24 -12 8 -9 24 -14 35 -11 17 4 18 2 9 -14 -12 -24 -1 -25 18 -1 7 9 13 13 12
7 -1 -5 -1 -19 1 -30 l1 -20 9 20 c8 20 9 19 9 -1 1 -29 24 -47 39 -32 9 9 12
9 12 0 0 -7 3 -11 8 -10 14 3 42 -14 42 -27 0 -7 14 -15 30 -18 17 -4 30 -12
30 -19 0 -9 -3 -9 -12 0 -7 7 -16 12 -22 12 -5 0 -1 -6 10 -14 10 -8 25 -11
33 -7 7 5 23 3 36 -3 21 -9 21 -12 6 -23 -14 -11 -14 -12 0 -8 9 3 21 -1 28
-9 7 -8 19 -12 27 -9 8 3 22 -3 30 -13 14 -18 15 -18 10 -1 -3 11 -2 16 4 12
6 -3 10 -13 10 -21 0 -17 12 -18 29 -1 7 6 12 8 11 2 -2 -5 -2 -17 -1 -25 1
-13 2 -13 11 0 7 11 10 11 10 2 0 -8 5 -10 13 -6 8 5 8 2 -2 -9 -16 -20 -8
-22 22 -5 19 10 20 9 10 -3 -10 -13 -8 -15 17 -13 17 1 27 -2 24 -7 -3 -5 2
-9 11 -9 10 0 13 -5 9 -12 -5 -8 0 -7 11 2 15 12 17 12 10 1 -6 -11 -3 -13 13
-9 12 4 20 2 17 -2 -3 -5 -1 -11 5 -15 5 -3 10 -1 10 5 0 6 10 2 22 -10 15
-13 25 -17 32 -10 13 13 26 13 26 -1 0 -5 -5 -7 -12 -3 -7 4 -8 3 -4 -5 4 -6
11 -9 16 -6 5 3 11 -3 13 -12 4 -16 5 -16 6 1 1 20 1 20 17 0 13 -16 15 -17
10 -1 -5 16 -3 16 24 2 17 -9 30 -18 30 -21 0 -2 -10 1 -23 7 -18 9 -20 9 -10
-2 8 -7 30 -12 54 -10 36 2 41 0 35 -16 -6 -17 -5 -17 8 0 11 15 15 15 19 3 3
-8 2 -17 -4 -20 -5 -2 -4 -3 3 -2 7 2 12 12 10 22 -2 17 -1 17 10 -2 9 -14 22
-21 41 -20 18 1 26 -3 23 -11 -3 -7 1 -10 8 -7 8 3 16 2 19 -3 3 -5 26 -8 51
-7 28 1 46 -3 47 -10 0 -6 4 -2 9 9 7 17 9 17 9 3 1 -21 5 -22 30 -8 14 7 24
4 39 -10 13 -12 23 -16 27 -9 5 7 11 7 19 0 7 -6 23 -10 37 -9 41 2 51 -1 43
-14 -4 -7 3 -4 15 6 17 16 21 17 16 4 -7 -17 17 -20 32 -3 4 4 2 5 -6 0 -10
-5 -12 -4 -7 4 10 15 29 3 22 -15 -3 -7 0 -16 6 -20 7 -4 8 -3 4 4 -4 7 -2 12
4 12 6 0 8 6 4 13 -6 9 -4 9 7 0 7 -7 25 -13 40 -13 15 0 31 -5 34 -11 5 -6
12 -4 22 8 8 10 11 12 7 4 -5 -11 -3 -13 11 -8 9 4 24 2 31 -4 12 -10 13 -8 7
7 -5 15 -4 17 8 9 8 -6 29 -10 47 -9 22 2 30 -1 25 -9 -3 -7 4 -3 16 8 12 11
22 15 21 10 -5 -25 2 -28 15 -5 8 14 14 19 15 12 0 -7 4 -11 9 -7 5 3 12 1 16
-4 4 -7 15 -7 31 -1 14 6 23 6 20 1 -3 -5 1 -11 9 -14 9 -4 12 -1 8 9 -4 10 0
12 13 8 11 -4 24 -11 31 -16 7 -6 17 -1 26 13 15 21 55 21 42 0 -3 -5 -1 -12
4 -16 6 -3 8 3 6 14 -2 12 3 21 16 24 17 4 18 3 8 -9 -14 -18 -8 -18 25 -1 14
8 22 18 18 22 -4 5 -1 5 6 1 7 -4 10 -11 7 -16 -3 -5 0 -12 6 -16 8 -4 9 -3 5
4 -4 7 -2 12 4 12 6 0 8 5 4 13 -6 9 -5 9 7 0 12 -10 18 -10 29 0 10 10 11 9
5 -3 -5 -8 -5 -12 0 -8 4 4 15 3 25 -2 12 -6 17 -5 17 5 0 8 -7 11 -16 7 -17
-6 -16 -4 13 18 11 8 17 10 13 3 -4 -6 -3 -14 3 -18 6 -4 8 -12 4 -18 -3 -7 7
2 21 18 15 17 24 25 21 19 -4 -8 3 -11 18 -10 17 1 21 4 15 13 -7 7 -6 14 2
19 8 5 9 3 4 -6 -6 -10 -4 -12 8 -7 9 3 19 1 23 -5 5 -7 2 -8 -6 -3 -9 5 -11
4 -6 -3 5 -8 13 -9 24 -3 9 5 22 10 27 11 6 1 12 3 14 6 2 2 -6 2 -17 -1 -12
-2 -24 0 -26 4 -7 10 35 8 53 -3 11 -7 13 -5 8 7 -3 10 -2 17 2 17 5 0 12 -6
14 -12 3 -7 6 -4 6 6 1 20 1 20 17 0 8 -10 13 -13 9 -6 -5 9 0 11 19 8 28 -5
33 3 14 23 -7 8 -1 6 15 -4 24 -16 27 -16 21 -1 -3 9 -2 16 4 16 6 0 12 -5 14
-11 3 -8 10 -6 20 5 10 9 19 12 23 7 7 -12 35 -3 35 11 0 6 -8 4 -17 -3 -16
-13 -17 -12 -5 3 7 9 21 15 30 13 9 -1 22 2 29 7 7 5 14 5 17 -1 9 -14 36 -2
30 14 -3 7 0 16 7 21 7 4 10 3 6 -3 -4 -6 0 -14 9 -17 10 -4 13 -2 8 6 -5 7 1
9 19 6 15 -3 24 -2 22 3 -10 15 37 39 56 28 12 -6 20 -5 25 3 4 7 3 8 -4 4
-17 -10 -15 9 2 23 11 9 16 9 22 0 5 -8 3 -9 -6 -4 -9 6 -11 4 -5 -5 6 -10 11
-9 21 4 9 13 13 14 18 4 3 -7 4 -3 2 10 -2 12 0 20 4 17 5 -3 11 1 14 7 3 7 3
2 0 -12 -5 -24 -4 -24 10 -6 9 10 13 23 10 27 -3 5 0 9 6 9 7 0 9 -7 6 -16 -3
-9 -2 -12 5 -9 5 4 18 1 27 -6 14 -11 15 -11 5 1 -18 20 -16 31 5 28 11 -2 17
3 16 14 -1 10 4 14 12 11 8 -3 11 -10 7 -16 -3 -6 -1 -7 6 -3 6 4 10 15 9 24
-2 10 3 16 11 14 7 -1 19 3 27 9 12 10 13 8 8 -7 -5 -18 -5 -18 6 0 10 14 9
20 -1 28 -11 7 -9 8 4 4 10 -3 21 -6 23 -6 3 0 2 -5 -2 -12 -4 -7 -3 -8 4 -4
7 4 12 14 12 23 0 9 6 13 15 9 10 -3 15 1 15 12 0 13 2 14 9 4 7 -11 9 -11 14
2 3 8 2 17 -4 20 -5 2 -4 3 3 2 7 -2 13 -8 13 -14 0 -5 4 -14 9 -19 5 -4 6 -3
2 4 -3 6 -2 14 4 18 6 4 8 11 5 16 -9 13 9 11 22 -2 9 -9 10 -6 6 12 -6 22 -5
23 12 9 11 -9 16 -10 11 -2 -4 7 -2 12 4 12 6 0 9 4 5 9 -3 5 0 13 6 17 8 5 9
3 4 -6 -5 -8 -3 -11 6 -8 8 3 13 11 11 18 -3 11 0 11 13 0 13 -11 14 -10 8 6
-6 17 -5 17 10 5 19 -15 24 -2 6 16 -8 8 -7 13 2 18 7 5 10 4 6 -2 -4 -6 0
-13 8 -17 10 -3 15 1 15 14 0 10 4 22 10 25 5 3 7 0 4 -8 -3 -8 1 -14 10 -14
8 0 14 3 12 6 -4 9 31 40 38 34 12 -12 6 13 -6 26 -11 11 -10 12 1 6 9 -5 19
-1 29 11 13 18 14 18 8 -6 -3 -14 -3 -19 0 -12 3 6 13 12 22 13 11 0 12 2 5 6
-7 2 -13 12 -12 21 0 11 2 12 6 5 2 -7 9 -13 15 -13 6 0 8 7 5 14 -4 11 -1 13
10 9 11 -4 14 -2 9 5 -5 8 2 12 20 12 23 0 25 2 13 17 -13 15 -12 15 11 3 l24
-13 -19 29 c-15 24 -16 27 -2 15 16 -13 22 -8 18 13 -1 5 4 4 12 -2 10 -9 18
-8 33 4 18 14 17 14 -6 4 -25 -12 -25 -12 3 15 15 15 34 24 42 21 8 -3 14 -2
14 2 -4 23 4 42 31 72 16 19 27 27 24 18 -3 -10 -10 -18 -14 -18 -14 0 -19
-28 -6 -33 8 -3 13 1 12 11 0 9 4 16 10 15 7 -1 11 10 10 27 -3 35 -3 35 20
13 17 -17 18 -17 11 1 -6 14 -4 17 10 12 15 -6 16 -5 6 5 -15 15 -18 33 -4 25
4 -3 17 2 27 10 17 14 17 15 1 10 -11 -4 -16 -2 -11 5 3 6 15 9 25 6 11 -3 17
-2 14 3 -2 4 5 16 16 26 11 10 18 23 15 30 -3 8 1 11 10 7 10 -3 12 0 8 10 -5
15 27 41 40 32 3 -3 4 -2 1 2 -3 3 2 14 11 24 9 10 14 25 11 33 -4 9 -1 18 5
22 7 4 8 3 4 -4 -4 -7 -2 -12 3 -12 6 0 11 7 11 15 0 17 34 38 45 27 4 -4 3 3
-3 14 -9 18 -8 25 6 35 15 12 16 12 5 -2 -10 -12 -10 -16 0 -16 7 0 14 11 15
24 1 12 -3 23 -10 23 -6 0 -8 3 -5 6 4 4 13 1 22 -6 13 -11 14 -10 9 4 -4 11
-2 16 6 14 7 -2 14 5 15 15 2 9 -1 15 -6 11 -5 -3 -6 -10 -3 -16 4 -7 2 -8 -5
-4 -17 11 7 39 27 31 13 -5 13 -3 1 12 -12 15 -12 16 5 10 16 -6 17 -5 6 8
-11 13 -10 14 3 10 8 -4 18 -1 23 6 4 7 3 10 -4 5 -6 -3 -13 -2 -17 4 -3 5 1
10 10 10 11 0 15 5 11 15 -3 8 0 14 7 12 7 -1 11 4 9 12 -2 8 3 11 12 8 13 -5
13 -2 5 20 -9 24 -8 25 8 12 11 -9 14 -10 9 -1 -4 7 -1 19 8 27 11 11 16 12
19 2 4 -9 6 -9 6 0 1 6 -4 15 -10 18 -6 5 -4 12 8 22 10 8 13 12 7 9 -6 -3
-11 1 -11 8 0 8 6 12 13 9 7 -2 17 5 24 16 6 12 8 21 4 21 -3 0 -1 6 5 14 6 7
10 24 9 36 -2 13 3 25 12 27 13 4 13 3 0 -6 -8 -5 -12 -12 -9 -16 3 -3 14 4
25 16 10 11 14 20 9 19 -24 -5 -27 1 -9 16 10 8 14 13 8 10 -6 -3 -11 1 -11 9
0 8 3 12 7 10 3 -2 12 0 20 6 13 7 13 9 1 9 -11 0 -9 4 5 15 19 15 19 15 -1 9
-15 -4 -13 0 8 16 15 12 25 26 22 30 -3 5 0 12 6 16 8 4 7 9 -2 15 -12 8 -11
11 1 22 9 6 15 22 14 35 -1 12 3 25 9 29 6 3 7 1 3 -5 -3 -6 -2 -13 3 -17 10
-5 8 14 -4 58 -5 17 -4 19 4 7 9 -12 11 -12 16 2 4 10 3 22 -1 29 -4 7 -3 9 3
6 12 -8 25 17 15 27 -12 13 -10 35 3 30 7 -3 16 0 21 7 4 8 3 10 -4 5 -16 -10
-15 7 1 23 10 11 9 13 -3 7 -8 -4 -4 1 9 12 18 14 21 21 11 27 -9 6 -11 4 -5
-6 5 -8 4 -10 0 -6 -11 10 -16 39 -5 32 4 -3 11 2 14 11 3 8 2 13 -2 10 -5 -3
-9 1 -9 8 0 8 6 12 14 9 9 -4 11 0 7 11 -4 10 -1 16 7 16 11 0 11 3 -1 10 -8
5 -10 10 -5 10 6 0 3 5 -5 10 -13 8 -12 10 4 10 20 0 20 0 0 15 -14 11 -15 14
-3 9 19 -6 35 11 19 21 -7 4 -7 13 0 26 6 10 10 25 8 32 -3 17 13 60 26 70 7
6 5 7 -6 4 -13 -5 -16 -1 -13 15 2 11 10 27 17 36 7 9 8 13 2 9 -8 -4 -11 5
-10 27 0 19 4 32 9 29 4 -2 7 5 7 16 0 12 5 21 10 21 6 0 5 8 -2 20 -10 15
-10 22 0 32 21 21 13 32 -10 12 -18 -15 -20 -15 -9 -2 7 10 11 23 8 30 -2 7 2
21 11 31 14 15 13 17 -1 17 -10 0 -17 -5 -17 -12 0 -6 -3 -8 -7 -4 -4 4 3 15
16 25 23 18 21 48 -2 34 -7 -4 -6 1 2 11 17 21 22 56 8 56 -5 0 -4 7 3 15 9
10 9 15 1 15 -6 0 -11 5 -11 11 0 5 4 8 9 5 15 -9 7 48 -9 62 -8 8 -9 11 -2 7
6 -3 12 0 13 7 0 7 2 23 3 35 1 12 -1 20 -5 18 -3 -3 -6 9 -5 25 0 17 5 30 11
30 5 0 3 5 -7 10 -10 6 -14 18 -11 30 3 11 1 20 -5 20 -6 0 -9 11 -6 25 3 20
1 23 -13 19 -14 -5 -15 -4 -4 4 8 6 11 17 7 27 -6 16 -4 16 11 4 17 -13 17
-12 4 4 -16 20 -21 66 -9 73 4 3 8 11 8 17 0 7 -4 6 -10 -3 -8 -13 -10 -13
-14 0 -3 8 -7 31 -8 50 -2 19 -10 40 -18 47 -8 6 -12 15 -7 19 4 4 7 2 7 -4 0
-7 4 -12 10 -12 12 0 9 22 -5 33 -6 4 -5 10 4 16 11 7 9 10 -7 15 -11 4 -23
14 -26 23 -6 14 -4 14 10 2 16 -13 16 -12 5 9 -7 12 -17 20 -24 17 -7 -4 -5
-1 3 7 17 14 15 48 -2 48 -6 0 -8 9 -5 20 3 11 0 26 -7 33 -15 16 -19 60 -4
51 7 -4 8 -2 4 4 -4 7 -16 12 -26 12 -17 0 -18 4 -10 25 7 19 6 27 -8 34 -14
8 -14 10 -2 11 13 0 13 2 0 9 -8 6 -18 7 -22 5 -4 -3 -8 -1 -8 5 0 5 6 11 13
14 9 3 8 9 -4 23 -9 10 -14 25 -11 33 3 9 0 11 -8 6 -10 -6 -12 -4 -7 8 3 8
-3 25 -13 37 -11 13 -17 26 -15 31 3 4 1 10 -5 14 -5 3 -10 16 -10 28 0 18 -2
20 -11 7 -9 -12 -10 -12 -5 4 7 22 -21 59 -38 49 -6 -3 -3 2 6 12 13 14 14 22
6 41 -6 13 -16 24 -21 24 -5 0 -3 -8 4 -17 13 -16 12 -17 -3 -4 -14 10 -15 17
-7 33 8 15 8 19 0 14 -10 -7 -15 5 -12 30 1 7 -6 15 -15 18 -14 5 -15 4 -5 -8
9 -11 9 -16 -1 -22 -7 -4 -10 -4 -6 1 4 4 3 14 -3 22 -9 10 -8 17 2 29 12 15
11 16 -7 10 -21 -6 -24 -1 -25 51 -1 12 -8 24 -17 28 -11 4 -12 2 -4 -8 8 -9
8 -17 0 -27 -8 -12 -9 -12 -4 2 3 10 1 20 -5 24 -6 4 -5 12 3 22 10 12 10 14
1 8 -7 -4 -13 -2 -13 3 0 6 -10 11 -22 12 -22 1 -22 1 2 8 24 7 24 7 3 13 -11
3 -26 16 -33 28 -7 12 -8 20 -3 17 5 -3 9 3 9 13 0 17 -2 17 -16 5 -14 -13
-16 -12 -17 8 -1 12 -7 23 -13 25 -5 2 -8 8 -4 13 3 5 0 9 -6 9 -6 0 -8 5 -4
11 4 8 -1 9 -17 4 -18 -5 -20 -4 -9 4 12 8 10 14 -15 35 -16 14 -33 22 -38 19
-6 -3 -7 -1 -3 6 6 9 11 9 22 0 8 -6 17 -9 21 -5 3 3 1 6 -6 6 -7 0 -10 4 -7
9 4 5 -4 8 -17 7 -14 -2 -24 3 -25 11 -1 7 -3 20 -4 28 -1 8 -4 13 -7 11 -3
-2 -15 6 -26 17 -11 11 -14 16 -6 12 10 -6 12 -4 7 4 -5 7 -15 10 -24 6 -9 -3
-13 -3 -10 1 4 4 -7 18 -25 33 -22 17 -31 33 -29 46 4 17 3 18 -13 5 -17 -14
-17 -13 -5 10 12 22 12 24 -2 12 -13 -10 -17 -10 -22 3 -3 8 -9 14 -13 13 -4
-2 -9 0 -10 5 -7 18 -2 19 16 3 14 -13 21 -14 27 -5 4 8 3 10 -5 5 -6 -4 -14
0 -17 9 -4 10 -14 15 -25 12 -21 -6 -35 8 -19 18 5 3 10 12 10 18 0 8 -3 8 -8
2 -4 -5 -13 -11 -21 -13 -12 -3 -12 0 -2 12 11 13 10 17 -3 22 -9 3 -13 11 -9
17 4 6 1 7 -7 2 -10 -6 -9 -11 5 -22 11 -7 14 -13 8 -13 -16 0 -36 28 -28 41
5 7 0 7 -16 -2 -22 -11 -23 -11 -10 4 13 17 7 22 -21 18 -4 0 -10 9 -13 20 -4
12 -13 18 -20 15 -9 -3 -12 0 -8 10 3 8 -1 14 -10 14 -8 0 -18 7 -21 16 -3 8
-10 12 -16 9 -6 -4 -7 1 -3 12 6 15 4 16 -8 6 -19 -16 -40 2 -31 26 5 14 4 14
-11 2 -10 -8 -20 -11 -24 -7 -3 3 -2 6 4 6 6 0 13 7 17 15 5 13 2 14 -16 4
-18 -10 -20 -9 -15 4 4 10 -1 18 -14 22 -10 4 -19 11 -19 17 0 6 -7 5 -17 -3
-9 -8 -14 -9 -10 -3 3 6 -3 16 -13 24 -10 8 -16 18 -13 24 4 6 0 5 -9 -2 -13
-10 -17 -10 -22 4 -3 9 -3 21 1 27 4 7 0 7 -9 -1 -11 -9 -18 -10 -23 -2 -3 5
-1 10 6 10 7 0 10 3 7 6 -4 3 -16 0 -28 -6 -20 -11 -21 -10 -10 10 7 13 8 20
2 16 -6 -3 -12 -3 -15 1 -2 5 -2 3 -1 -4 2 -6 -5 -17 -14 -25 -15 -11 -15 -11
-5 2 13 17 -1 43 -27 48 -8 2 -20 12 -28 23 -9 14 -18 17 -25 10 -14 -11 -47
9 -47 30 0 10 -3 10 -12 1 -7 -7 -17 -12 -23 -12 -5 0 -3 5 5 10 12 8 13 11 1
19 -7 5 -23 6 -35 3 -18 -5 -19 -3 -8 10 11 14 10 16 -7 11 -16 -4 -21 0 -22
13 0 18 -1 18 -9 -1 -5 -11 -9 -15 -9 -8 -1 6 -10 10 -21 8 -12 -2 -18 0 -15
6 4 5 10 7 15 4 5 -3 12 0 16 7 4 7 3 10 -1 5 -5 -4 -19 0 -33 9 -13 9 -21 11
-18 5 10 -16 -19 -14 -33 2 -6 8 -7 18 -3 23 4 4 -2 2 -12 -6 -13 -10 -17 -10
-12 -2 5 8 -1 12 -18 12 -17 0 -26 6 -26 16 0 8 -5 12 -10 9 -6 -4 -7 -12 -4
-18 4 -7 3 -8 -2 -4 -5 5 -10 13 -10 18 -1 5 -2 12 -3 16 0 4 -8 -2 -16 -13
-13 -18 -14 -17 -9 11 3 23 2 26 -6 15 -9 -13 -11 -13 -19 -1 -8 12 -15 13
-35 3 -27 -12 -35 -7 -31 19 2 12 -5 15 -35 12 -27 -2 -40 2 -44 13 -4 9 -13
14 -21 10 -8 -3 -15 -1 -15 5 0 6 -4 8 -9 4 -5 -3 -12 -1 -16 5 -4 7 -12 7
-25 0 -13 -7 -21 -7 -25 1 -4 6 -14 8 -22 5 -8 -3 -12 -2 -10 2 3 4 -1 13 -9
20 -8 7 -14 9 -14 4 0 -14 -33 -9 -43 5 -4 7 -15 9 -23 6 -9 -3 -20 0 -24 7
-7 11 -12 11 -26 -1 -11 -9 -15 -9 -10 -1 4 6 3 12 -3 12 -5 0 -13 -4 -16 -10
-3 -5 -11 -10 -17 -10 -6 0 -6 6 2 15 7 9 10 18 6 22 -3 3 -6 1 -6 -6 0 -9 -5
-9 -22 0 -21 11 -22 11 -9 -4 17 -21 8 -22 -13 -1 -10 9 -16 11 -16 4 0 -7 -6
-5 -15 4 -9 9 -27 13 -45 11 -17 -2 -30 1 -30 6 0 6 -5 7 -10 4 -6 -4 -8 -11
-5 -16 3 -5 -1 -6 -9 -3 -9 3 -16 9 -16 13 0 3 -10 12 -22 20 -18 10 -20 11
-10 0 16 -17 16 -34 -1 -20 -10 7 -17 7 -24 0 -8 -8 -15 -4 -26 11 -11 15 -16
18 -20 8 -5 -11 -7 -11 -15 0 -7 11 -10 11 -15 -2 -8 -20 -21 -20 -41 0 -12
12 -16 12 -16 2 0 -9 -3 -9 -8 -2 -9 14 -43 14 -35 0 4 -6 0 -5 -9 2 -17 14
-68 13 -68 -2 0 -5 -6 -2 -13 9 -11 14 -16 15 -22 5 -6 -9 -4 -11 6 -5 12 7
12 5 1 -6 -9 -9 -15 -10 -20 -3 -9 15 -54 26 -45 11 4 -6 0 -8 -9 -4 -9 3 -21
0 -28 -6 -10 -9 -11 -9 -5 3 8 13 7 13 -10 0 -11 -9 -16 -10 -11 -2 4 6 3 12
-3 12 -5 0 -12 -6 -14 -12 -4 -10 -6 -10 -6 0 -1 15 -31 16 -31 1 0 -5 5 -7
12 -3 7 4 8 3 4 -4 -4 -6 -13 -9 -21 -6 -8 4 -12 11 -8 17 3 6 1 7 -6 3 -6 -4
-20 -2 -29 5 -12 10 -11 6 3 -10z m289 -19 c3 -5 -1 -9 -9 -9 -8 0 -12 4 -9 9
3 4 7 8 9 8 2 0 6 -4 9 -8z m181 -2 c-3 -5 -12 -10 -18 -10 -7 0 -6 4 3 10 19
12 23 12 15 0z m200 -20 c3 -6 -1 -7 -9 -4 -18 7 -21 14 -7 14 6 0 13 -4 16
-10z m360 -99 c-6 -5 -25 10 -25 20 0 5 6 4 14 -3 8 -7 12 -15 11 -17z m-1740
-31 c3 -6 -1 -7 -9 -4 -18 7 -21 14 -7 14 6 0 13 -4 16 -10z m-365 -170 c0 -5
-2 -10 -4 -10 -3 0 -8 5 -11 10 -3 6 -1 10 4 10 6 0 11 -4 11 -10z m2717 -62
c-3 -8 -6 -5 -6 6 -1 11 2 17 5 13 3 -3 4 -12 1 -19z m-2872 2 c-3 -5 -1 -10
6 -10 7 0 10 -3 6 -6 -9 -9 -28 6 -22 17 4 5 8 9 11 9 3 0 2 -4 -1 -10z m-240
-172 c-3 -8 -12 -15 -20 -15 -12 0 -11 4 3 17 20 20 25 19 17 -2z m-285 -231
c0 -2 -9 -14 -20 -27 -11 -13 -20 -19 -20 -15 0 5 7 17 17 27 15 17 23 22 23
15z m-756 -1363 c3 -8 2 -12 -4 -9 -6 3 -10 10 -10 16 0 14 7 11 14 -7z m5541
-483 c3 -5 0 -13 -6 -17 -7 -4 -9 -3 -5 4 3 5 0 13 -6 15 -9 4 -10 6 -1 6 6 1
14 -3 18 -8z m-5 -391 c0 -5 -5 -10 -11 -10 -5 0 -7 5 -4 10 3 6 8 10 11 10 2
0 4 -4 4 -10z m-5520 -460 c0 -5 -5 -10 -11 -10 -5 0 -7 5 -4 10 3 6 8 10 11
10 2 0 4 -4 4 -10z m95 -320 c3 -5 2 -10 -4 -10 -5 0 -13 5 -16 10 -3 6 -2 10
4 10 5 0 13 -4 16 -10z m5241 -15 c1 -8 -1 -17 -5 -19 -4 -3 -7 6 -7 19 0 25
8 25 12 0z m-98 -210 c-1 -14 -6 -25 -11 -25 -5 0 -6 7 -3 16 3 9 6 20 6 25 0
5 2 9 5 9 3 0 4 -11 3 -25z m-5025 -20 c-3 -9 -8 -14 -10 -11 -3 3 -2 9 2 15
9 16 15 13 8 -4z m4717 -474 c-5 -11 -15 -23 -21 -27 -6 -3 -3 5 6 20 20 30
30 35 15 7z m-4370 -55 c0 -3 -4 -8 -10 -11 -5 -3 -10 -1 -10 4 0 6 5 11 10
11 6 0 10 -2 10 -4z m4300 -40 c0 -2 -7 -9 -15 -16 -13 -11 -14 -10 -9 4 5 14
24 23 24 12z m-4155 -126 c3 -5 1 -10 -4 -10 -6 0 -11 5 -11 10 0 6 2 10 4 10
3 0 8 -4 11 -10z m459 -406 c3 -8 2 -12 -4 -9 -6 3 -10 10 -10 16 0 14 7 11
14 -7z m233 -123 c0 -11 -5 -18 -9 -15 -4 3 -5 11 -1 19 7 21 12 19 10 -4z
m683 -273 c0 -6 -6 -5 -15 2 -8 7 -15 14 -15 16 0 2 7 1 15 -2 8 -4 15 -11 15
-16z m40 6 c0 -8 -19 -13 -24 -6 -3 5 1 9 9 9 8 0 15 -2 15 -3z m435 -64 c3
-5 1 -10 -4 -10 -6 0 -11 5 -11 10 0 6 2 10 4 10 3 0 8 -4 11 -10z m350 0 c4
-6 11 -7 17 -4 7 4 8 2 4 -5 -6 -9 -12 -9 -24 1 -10 7 -19 14 -21 15 -2 2 1 3
7 3 6 0 14 -5 17 -10z"/>
<path d="M3266 5878 c3 -4 9 -8 15 -8 5 0 9 4 9 8 0 5 -7 9 -15 9 -8 0 -12 -4
-9 -9z"/>
<path d="M2790 5869 c0 -5 5 -7 10 -4 6 3 10 8 10 11 0 2 -4 4 -10 4 -5 0 -10
-5 -10 -11z"/>
<path d="M3355 5870 c3 -5 8 -10 11 -10 2 0 4 5 4 10 0 6 -5 10 -11 10 -5 0
-7 -4 -4 -10z"/>
<path d="M2595 5850 c-3 -5 -1 -10 4 -10 6 0 11 5 11 10 0 6 -2 10 -4 10 -3 0
-8 -4 -11 -10z"/>
<path d="M3820 5796 c0 -2 7 -9 15 -16 9 -7 15 -8 15 -2 0 5 -7 12 -15 16 -8
3 -15 4 -15 2z"/>
<path d="M4036 5713 c-6 -14 -5 -15 5 -6 7 7 10 15 7 18 -3 3 -9 -2 -12 -12z"/>
<path d="M1861 5614 c0 -11 3 -14 6 -6 3 7 2 16 -1 19 -3 4 -6 -2 -5 -13z"/>
<path d="M4460 5526 c0 -2 7 -9 15 -16 9 -7 15 -8 15 -2 0 5 -7 12 -15 16 -8
3 -15 4 -15 2z"/>
<path d="M4835 5260 c3 -5 8 -10 11 -10 2 0 4 5 4 10 0 6 -5 10 -11 10 -5 0
-7 -4 -4 -10z"/>
<path d="M4956 5182 c-3 -5 1 -9 9 -9 8 0 12 4 9 9 -3 4 -7 8 -9 8 -2 0 -6 -4
-9 -8z"/>
<path d="M5161 4969 c-1 -16 29 -49 44 -49 4 0 -1 8 -12 18 -11 9 -22 24 -26
32 -5 13 -6 13 -6 -1z"/>
<path d="M5436 4608 c3 -5 10 -6 15 -3 13 9 11 12 -6 12 -8 0 -12 -4 -9 -9z"/>
<path d="M5516 4487 c3 -10 9 -15 12 -12 3 3 0 11 -7 18 -10 9 -11 8 -5 -6z"/>
<path d="M5615 4280 c3 -5 11 -10 16 -10 6 0 7 5 4 10 -3 6 -11 10 -16 10 -6
0 -7 -4 -4 -10z"/>
<path d="M5675 4171 c-3 -5 -2 -12 3 -15 5 -3 9 1 9 9 0 17 -3 19 -12 6z"/>
<path d="M5895 2940 c-3 -5 -1 -10 4 -10 6 0 11 5 11 10 0 6 -2 10 -4 10 -3 0
-8 -4 -11 -10z"/>
<path d="M5891 2776 c-9 -11 -9 -16 1 -22 7 -4 10 -4 6 1 -4 4 -3 14 3 22 6 7
9 13 6 13 -2 0 -10 -6 -16 -14z"/>
<path d="M5266 1278 c3 -5 10 -6 15 -3 13 9 11 12 -6 12 -8 0 -12 -4 -9 -9z"/>
<path d="M978 1173 c7 -3 16 -2 19 1 4 3 -2 6 -13 5 -11 0 -14 -3 -6 -6z"/>
<path d="M1106 1045 c4 -8 11 -15 16 -15 6 0 5 6 -2 15 -7 8 -14 15 -16 15 -2
0 -1 -7 2 -15z"/>
<path d="M1565 680 c-4 -6 -1 -9 7 -8 7 2 12 -3 10 -10 -1 -8 2 -11 8 -7 8 5
7 11 -1 21 -14 17 -16 17 -24 4z"/>
<path d="M1690 604 c0 -8 5 -12 10 -9 6 4 8 11 5 16 -9 14 -15 11 -15 -7z"/>
<path d="M2582 288 c-8 -10 -5 -13 13 -13 18 0 21 3 13 13 -6 6 -12 12 -13 12
-1 0 -7 -6 -13 -12z"/>
</g>
</svg>
