<svg width="13" height="13" viewBox="0 0 13 13" fill="none" xmlns="http://www.w3.org/2000/svg">
<path d="M11.9149 9.7419V11.3848C11.9155 11.5373 11.8843 11.6882 11.8232 11.828C11.7621 11.9677 11.6725 12.0931 11.5601 12.1963C11.4477 12.2994 11.315 12.3779 11.1706 12.4267C11.0261 12.4756 10.873 12.4937 10.7211 12.48C9.03599 12.2969 7.41732 11.7211 5.99515 10.7988C4.67201 9.95802 3.55022 8.83623 2.70944 7.51309C1.78395 6.08446 1.208 4.45792 1.02825 2.76523C1.01456 2.6138 1.03256 2.46117 1.08109 2.31707C1.12963 2.17298 1.20763 2.04056 1.31014 1.92826C1.41266 1.81596 1.53743 1.72624 1.67652 1.6648C1.8156 1.60337 1.96596 1.57157 2.11801 1.57142H3.76087C4.02663 1.56881 4.28428 1.66292 4.48578 1.83621C4.68729 2.00951 4.81891 2.25017 4.85611 2.51333C4.92545 3.03908 5.05404 3.5553 5.23944 4.05214C5.31312 4.24814 5.32906 4.46116 5.28539 4.66595C5.24171 4.87074 5.14024 5.05872 4.99301 5.20761L4.29753 5.90309C5.0771 7.27408 6.21226 8.40924 7.58325 9.1888L8.27872 8.49333C8.42762 8.34609 8.61559 8.24463 8.82039 8.20095C9.02518 8.15727 9.23819 8.17322 9.4342 8.2469C9.93104 8.4323 10.4473 8.56089 10.973 8.63023C11.239 8.66776 11.482 8.80175 11.6556 9.00672C11.8293 9.21169 11.9216 9.47333 11.9149 9.7419Z" fill="#DE1E1E"/>
<path d="M8.10896 3.21428L8.96428 4.03571L9.78571 4.85714L10.2721 5.37738M8.10896 1.0238C9.22023 1.14726 10.1819 1.7232 10.973 2.51333C11.7641 3.30345 12.3377 4.26079 12.4625 5.3719M11.9149 9.7419V11.3848C11.9155 11.5373 11.8843 11.6882 11.8232 11.828C11.7621 11.9677 11.6725 12.0931 11.5601 12.1963C11.4477 12.2994 11.315 12.3779 11.1706 12.4267C11.0261 12.4756 10.873 12.4937 10.7211 12.48C9.03599 12.2969 7.41732 11.7211 5.99515 10.7988C4.67201 9.95802 3.55022 8.83623 2.70944 7.51309C1.78395 6.08446 1.208 4.45792 1.02825 2.76523C1.01456 2.6138 1.03256 2.46117 1.08109 2.31707C1.12963 2.17298 1.20763 2.04056 1.31014 1.92826C1.41266 1.81596 1.53743 1.72624 1.67652 1.6648C1.8156 1.60337 1.96596 1.57157 2.11801 1.57142H3.76087C4.02663 1.56881 4.28428 1.66292 4.48578 1.83621C4.68729 2.00951 4.81891 2.25017 4.85611 2.51333C4.92545 3.03908 5.05404 3.5553 5.23944 4.05214C5.31312 4.24814 5.32906 4.46116 5.28539 4.66595C5.24171 4.87074 5.14025 5.05872 4.99301 5.20761L4.29753 5.90309C5.0771 7.27408 6.21226 8.40924 7.58325 9.1888L8.27872 8.49333C8.42762 8.34609 8.61559 8.24463 8.82039 8.20095C9.02518 8.15727 9.23819 8.17322 9.4342 8.2469C9.93104 8.4323 10.4473 8.56089 10.973 8.63023C11.239 8.66776 11.482 8.80175 11.6556 9.00672C11.8293 9.21169 11.9216 9.47333 11.9149 9.7419Z" stroke="#F2F2F2" stroke-linecap="round" stroke-linejoin="round"/>
</svg>
